<svg id="Layer_1" data-name="Layer 1" xmlns="http://www.w3.org/2000/svg" viewBox="0 0 424.39 133.64"><defs><style>.cls-1{fill:#a62425;}.cls-2{fill:#c57d2a;}</style></defs><title>zuki</title><path class="cls-1" d="M209,439.31v16.86H125.91l-.16.13H101.49l.15-.13,14.74-16.86,26.42-30.06,12.14-13.76,14.74-16.71H101.33V361.93H208.54l-14.9,16.85-26.72,30.47L154.78,423l-14.44,16.31Z" transform="translate(-85.44 -343.28)"/><path class="cls-1" d="M331.4,361.93v47.18c0,26-24.12,47.19-53.76,47.19s-53.76-21.16-53.76-47.19V361.93h19.2v47.18c0,16.72,15.51,30.34,34.56,30.34s34.55-13.62,34.55-30.34V361.93Z" transform="translate(-85.44 -343.28)"/><path class="cls-1" d="M407.25,399.81l46.54,56.49H430.14l-37.17-45L365.79,433V456.3H346.58V361.93h19.21v48.26l15.82-12.67,14.28-11.46,29.95-24.13h28.42Z" transform="translate(-85.44 -343.28)"/><path class="cls-2" d="M484.07,393.94l4.73,62.37H469.57l4.8-62.37c-5.84-4.56-9.94-17.15-9.94-32h4.45v16.92h2.37V362H475v16.92h2.31V362h3.76v16.92h2.36V362h3.76v16.92h2.31V362h4.44C493.94,376.73,489.84,389.32,484.07,393.94Z" transform="translate(-85.44 -343.28)"/><path class="cls-1" d="M346.72,476.82v-9.25h1.6l3.86,7.09-.14.16v-7.25h1.43v9.25h-1.62l-3.85-7,.15-.16v7.15Z" transform="translate(-85.44 -343.28)"/><path class="cls-1" d="M359.16,467.57v9.25h-1.5v-9.25Z" transform="translate(-85.44 -343.28)"/><path class="cls-1" d="M366.5,471.74h3.11v1.72a3.9,3.9,0,0,1-.4,1.82,3,3,0,0,1-1.12,1.21,3.18,3.18,0,0,1-1.68.43,3.42,3.42,0,0,1-1.7-.41,2.73,2.73,0,0,1-1.13-1.13,3.5,3.5,0,0,1-.41-1.72v-2.73a4,4,0,0,1,.4-1.82,3,3,0,0,1,1.12-1.21,3.18,3.18,0,0,1,1.68-.43,3.12,3.12,0,0,1,1.46.35,3.15,3.15,0,0,1,1.1,1,3.59,3.59,0,0,1,.61,1.44H368a1.57,1.57,0,0,0-.61-.9,1.67,1.67,0,0,0-1-.31,1.54,1.54,0,0,0-1.22.52,2.06,2.06,0,0,0-.46,1.4v2.73a1.7,1.7,0,0,0,.47,1.25,1.67,1.67,0,0,0,1.25.47,1.54,1.54,0,0,0,1.22-.5,2,2,0,0,0,.46-1.4v-.27H366.5Z" transform="translate(-85.44 -343.28)"/><path class="cls-1" d="M373.68,476.82v-9.25h1.5v9.25Zm.78-3.83v-1.48h5.1V473Zm4.19,3.83v-9.25h1.51v9.25Z" transform="translate(-85.44 -343.28)"/><path class="cls-1" d="M383.18,469v-1.45h6.45V469Zm2.49,7.8v-8.5h1.47v8.5Z" transform="translate(-85.44 -343.28)"/><path class="cls-1" d="M394.81,476.82v-9.26h1.53v9.26Zm.61-3.82v-1.42h3.21a.78.78,0,0,0,.67-.36,1.56,1.56,0,0,0,.26-.94,1.59,1.59,0,0,0-.26-.94.77.77,0,0,0-.67-.35h-3.21v-1.43h3.25a2.3,2.3,0,0,1,1.27.34,2.18,2.18,0,0,1,.85,1,3.56,3.56,0,0,1,0,2.86,2.18,2.18,0,0,1-.85,1,2.3,2.3,0,0,1-1.27.34Zm4.28,3.82-2.12-4.1,1.53-.3,2.36,4.4Z" transform="translate(-85.44 -343.28)"/><path class="cls-1" d="M405.1,476.82v-9.25h1.48v9.25Zm.62-7.8v-1.45H411V469Zm0,3.93V471.5h4.59V473Zm0,3.87V475.4H411v1.42Z" transform="translate(-85.44 -343.28)"/><path class="cls-1" d="M417.57,476.92a5.65,5.65,0,0,1-1.82-.29,4.41,4.41,0,0,1-1.49-.86l.78-1.21a3.48,3.48,0,0,0,1.16.68,3.9,3.9,0,0,0,1.37.23,2.48,2.48,0,0,0,1.39-.33,1.06,1.06,0,0,0,.5-.93h0a.93.93,0,0,0-.25-.71,1.46,1.46,0,0,0-.66-.37,8.87,8.87,0,0,0-.88-.2c-.34-.06-.69-.14-1-.22a3.38,3.38,0,0,1-1-.38,1.86,1.86,0,0,1-.72-.75,2.76,2.76,0,0,1-.27-1.32h0a2.52,2.52,0,0,1,.85-2.05,3.52,3.52,0,0,1,2.39-.73,4.3,4.3,0,0,1,1.45.25,4.87,4.87,0,0,1,1.37.72l-.71,1.25a3.57,3.57,0,0,0-2.11-.77,2.25,2.25,0,0,0-1.31.32,1,1,0,0,0-.47.91h0a.94.94,0,0,0,.28.74,1.77,1.77,0,0,0,.71.37c.3.08.61.16,1,.23s.67.15,1,.25a3,3,0,0,1,.92.42,1.86,1.86,0,0,1,.66.75,2.67,2.67,0,0,1,.25,1.25h0a2.46,2.46,0,0,1-.88,2A3.79,3.79,0,0,1,417.57,476.92Z" transform="translate(-85.44 -343.28)"/><path class="cls-1" d="M423.51,469v-1.45H430V469Zm2.49,7.8v-8.5h1.47v8.5Z" transform="translate(-85.44 -343.28)"/><path class="cls-1" d="M432.12,476.82l3.37-9.25h1.07l3.37,9.25h-1.51l-2.4-7.05-2.39,7.05Zm1.59-1.75v-1.43h4.71v1.43Z" transform="translate(-85.44 -343.28)"/><path class="cls-1" d="M446.4,476.92A3,3,0,0,1,444,476a3.6,3.6,0,0,1-.84-2.55v-5.9h1.47v5.95a2,2,0,0,0,.45,1.4,1.9,1.9,0,0,0,2.57,0,2,2,0,0,0,.46-1.4v-5.95h1.47v5.9a3.6,3.6,0,0,1-.84,2.55A3.09,3.09,0,0,1,446.4,476.92Z" transform="translate(-85.44 -343.28)"/><path class="cls-1" d="M453.75,476.82v-9.26h1.54v9.26Zm.61-3.82v-1.42h3.22a.78.78,0,0,0,.67-.36,1.56,1.56,0,0,0,.25-.94,1.58,1.58,0,0,0-.25-.94.77.77,0,0,0-.67-.35h-3.22v-1.43h3.26a2.27,2.27,0,0,1,2.12,1.29,3.56,3.56,0,0,1,0,2.86,2.27,2.27,0,0,1-2.12,1.29Zm4.28,3.82-2.11-4.1,1.53-.3,2.35,4.4Z" transform="translate(-85.44 -343.28)"/><path class="cls-1" d="M463.19,476.82l3.36-9.25h1.08l3.37,9.25h-1.52l-2.39-7.05-2.39,7.05Zm1.58-1.75v-1.43h4.72v1.43Z" transform="translate(-85.44 -343.28)"/><path class="cls-1" d="M474.39,476.82v-9.25H476l3.86,7.09-.15.16v-7.25h1.43v9.25h-1.61l-3.85-7,.15-.16v7.15Z" transform="translate(-85.44 -343.28)"/><path class="cls-1" d="M484.16,469v-1.45h6.45V469Zm2.49,7.8v-8.5h1.46v8.5Z" transform="translate(-85.44 -343.28)"/><polygon class="cls-2" points="0 0 0 130.33 256.32 130.33 256.32 127.33 3 127.33 3 3 421.39 3 421.39 127.33 407.9 127.33 407.9 130.33 424.39 130.33 424.39 0 0 0"/></svg>